<svg width="32" height="32" viewBox="0 0 32 32" fill="none" xmlns="http://www.w3.org/2000/svg">
<rect width="32" height="32" rx="3.2" fill="white"/>
<path d="M10.635 25.84H7.23657V13.1603H10.635V25.84ZM7.03735 9.87906C7.03735 9.37125 7.20532 8.95328 7.54126 8.62515C7.88501 8.29703 8.34985 8.13297 8.93579 8.13297C9.51392 8.13297 9.97485 8.29703 10.3186 8.62515C10.6624 8.95328 10.8342 9.37125 10.8342 9.87906C10.8342 10.3947 10.6584 10.8166 10.3069 11.1447C9.96313 11.4728 9.5061 11.6369 8.93579 11.6369C8.36548 11.6369 7.90454 11.4728 7.55298 11.1447C7.20923 10.8166 7.03735 10.3947 7.03735 9.87906ZM16.553 13.1603L16.6584 14.6252C17.5647 13.4923 18.7795 12.9259 20.303 12.9259C21.6467 12.9259 22.6467 13.3205 23.303 14.1095C23.9592 14.8986 24.2952 16.0783 24.3108 17.6486V25.84H20.9241V17.7306C20.9241 17.0119 20.7678 16.4923 20.4553 16.172C20.1428 15.8439 19.6233 15.6798 18.8967 15.6798C17.9436 15.6798 17.2288 16.0861 16.7522 16.8986V25.84H13.3655V13.1603H16.553Z" fill="#171F3F"/>
</svg>
